<svg width="45" height="48" viewBox="0 0 45 48" fill="none" xmlns="http://www.w3.org/2000/svg">
<path d="M7.992 16.52C7.992 17.176 8.208 17.68 8.64 18.032C9.088 18.384 9.688 18.56 10.44 18.56C11.112 18.56 11.608 18.448 11.928 18.224C12.248 18 12.52 17.664 12.744 17.216C12.952 16.8 13.232 16.592 13.584 16.592H18.768C18.912 16.592 19.032 16.648 19.128 16.76C19.24 16.856 19.296 16.976 19.296 17.12C19.296 18.096 18.968 19.056 18.312 20C17.656 20.928 16.656 21.704 15.312 22.328C13.984 22.936 12.36 23.24 10.44 23.24C8.728 23.24 7.2 22.984 5.856 22.472C4.528 21.944 3.472 21.144 2.688 20.072C1.904 18.984 1.512 17.632 1.512 16.016V13.184C1.512 11.568 1.904 10.224 2.688 9.152C3.472 8.064 4.528 7.264 5.856 6.752C7.2 6.224 8.728 5.96 10.44 5.96C12.36 5.96 13.984 6.272 15.312 6.896C16.656 7.504 17.656 8.28 18.312 9.224C18.968 10.152 19.296 11.104 19.296 12.08C19.296 12.224 19.24 12.352 19.128 12.464C19.032 12.56 18.912 12.608 18.768 12.608H13.584C13.232 12.608 12.952 12.4 12.744 11.984C12.52 11.536 12.248 11.2 11.928 10.976C11.608 10.752 11.112 10.64 10.44 10.64C9.688 10.64 9.088 10.816 8.64 11.168C8.208 11.52 7.992 12.024 7.992 12.68V16.52Z" fill="white"/>
<path d="M29.992 16.52C29.992 17.176 30.208 17.68 30.64 18.032C31.088 18.384 31.688 18.56 32.44 18.56C33.112 18.56 33.608 18.448 33.928 18.224C34.248 18 34.52 17.664 34.744 17.216C34.952 16.8 35.232 16.592 35.584 16.592H40.768C40.912 16.592 41.032 16.648 41.128 16.76C41.24 16.856 41.296 16.976 41.296 17.12C41.296 18.096 40.968 19.056 40.312 20C39.656 20.928 38.656 21.704 37.312 22.328C35.984 22.936 34.36 23.24 32.44 23.24C30.728 23.24 29.2 22.984 27.856 22.472C26.528 21.944 25.472 21.144 24.688 20.072C23.904 18.984 23.512 17.632 23.512 16.016V13.184C23.512 11.568 23.904 10.224 24.688 9.152C25.472 8.064 26.528 7.264 27.856 6.752C29.2 6.224 30.728 5.96 32.44 5.96C34.36 5.96 35.984 6.272 37.312 6.896C38.656 7.504 39.656 8.28 40.312 9.224C40.968 10.152 41.296 11.104 41.296 12.08C41.296 12.224 41.24 12.352 41.128 12.464C41.032 12.56 40.912 12.608 40.768 12.608H35.584C35.232 12.608 34.952 12.4 34.744 11.984C34.52 11.536 34.248 11.2 33.928 10.976C33.608 10.752 33.112 10.64 32.44 10.64C31.688 10.64 31.088 10.816 30.64 11.168C30.208 11.52 29.992 12.024 29.992 12.68V16.52Z" fill="white"/>
<path d="M33.52 32.296C35.28 32.488 36.688 32.8 37.744 33.232C38.816 33.664 39.592 34.232 40.072 34.936C40.552 35.64 40.792 36.52 40.792 37.576C40.792 38.728 40.416 39.736 39.664 40.6C38.928 41.448 37.904 42.104 36.592 42.568C35.28 43.016 33.784 43.24 32.104 43.24C30.232 43.24 28.648 43.008 27.352 42.544C26.056 42.08 25.088 41.464 24.448 40.696C23.808 39.912 23.488 39.056 23.488 38.128C23.488 37.968 23.536 37.84 23.632 37.744C23.744 37.648 23.88 37.6 24.04 37.6H28.96C29.296 37.6 29.568 37.704 29.776 37.912C30.048 38.168 30.352 38.344 30.688 38.44C31.024 38.52 31.496 38.56 32.104 38.56C33.624 38.56 34.384 38.328 34.384 37.864C34.384 37.672 34.28 37.512 34.072 37.384C33.88 37.24 33.528 37.12 33.016 37.024C32.52 36.912 31.784 36.8 30.808 36.688C28.616 36.432 26.936 35.888 25.768 35.056C24.6 34.208 24.016 33.016 24.016 31.48C24.016 30.392 24.344 29.432 25 28.6C25.656 27.768 26.584 27.12 27.784 26.656C29 26.192 30.408 25.96 32.008 25.96C33.672 25.96 35.128 26.224 36.376 26.752C37.624 27.264 38.576 27.904 39.232 28.672C39.888 29.44 40.216 30.192 40.216 30.928C40.216 31.088 40.16 31.216 40.048 31.312C39.952 31.408 39.816 31.456 39.64 31.456H34.48C34.208 31.456 33.96 31.36 33.736 31.168C33.56 31.008 33.352 30.88 33.112 30.784C32.872 30.688 32.504 30.64 32.008 30.64C30.936 30.64 30.4 30.864 30.4 31.312C30.4 31.552 30.608 31.744 31.024 31.888C31.44 32.016 32.272 32.152 33.52 32.296Z" fill="white"/>
<line x1="44" y1="44" x2="44" y2="5" stroke="#185ABE" stroke-opacity="0.75" stroke-width="2"/>
<line x1="22" y1="24.5" x2="43" y2="24.5" stroke="#185ABE" stroke-opacity="0.75"/>
<line x1="1" y1="45" x2="45" y2="45" stroke="#185ABE" stroke-opacity="0.75" stroke-width="2"/>
<path d="M13.344 26.848C13.584 26.416 13.928 26.2 14.376 26.2H18.768C18.944 26.2 19.096 26.264 19.224 26.392C19.352 26.52 19.416 26.672 19.416 26.848V42.352C19.416 42.528 19.352 42.68 19.224 42.808C19.096 42.936 18.944 43 18.768 43H14.424C14.248 43 14.096 42.936 13.968 42.808C13.84 42.68 13.776 42.528 13.776 42.352V34.912L12.024 38.368C11.976 38.48 11.864 38.608 11.688 38.752C11.512 38.896 11.288 38.968 11.016 38.968H9.384C9.112 38.968 8.888 38.896 8.712 38.752C8.536 38.608 8.424 38.48 8.376 38.368L6.624 34.912V42.352C6.624 42.528 6.56 42.68 6.432 42.808C6.304 42.936 6.152 43 5.976 43H1.632C1.456 43 1.304 42.936 1.176 42.808C1.048 42.68 0.984 42.528 0.984 42.352V26.848C0.984 26.672 1.048 26.52 1.176 26.392C1.304 26.264 1.456 26.2 1.632 26.2H6.024C6.472 26.2 6.816 26.416 7.056 26.848L10.2 32.608L13.344 26.848Z" fill="white"/>
</svg>
